<svg version="1.1" id="Layer_1" xmlns="http://www.w3.org/2000/svg" xmlns:xlink="http://www.w3.org/1999/xlink" x="0px" y="0px"
	 width="310px" height="210px" >
<style type="text/css">
<![CDATA[
	.st0{fill:#1586C8;}
	.st1{fill:#1586C8;stroke:#383838;stroke-width:0.5;stroke:#fff;}
	.st2{fill:#55894C;stroke:#8E8D8D;stroke-miterlimit:10;}
	.st3{fill:#659B5C;stroke:#D6D4D5;stroke-miterlimit:10;}
	.st4{enable-background:new    ;}
	.st5{opacity:0.4;enable-background:new    ;}
	.st6{font-size:58.66;}
	.st7{fill:url(#SVGID_1_);}
	.st8{fill:none;stroke:#6D6D6D;stroke-width:0.5;stroke-miterlimit:10;}
	.st9{fill:#77C16C;stroke:#FFFFFF;stroke-miterlimit:10;}
	.st10{font-family:'MyriadPro-Bold';}
	.st4:hover{fill:red;}
]]>
</style>
<!-- <rect class="st5" width="310" height="211.275"/> -->
<g>
	
<!-- 		<image style="overflow:visible;enable-background:new    ;" width="633" height="613" xlink:href="5FDD8019.png"  transform="matrix(0.2162 0 0 0.2158 -9.6641 39.4834)">
	</image> -->
	<g>
		
			<radialGradient id="SVGID_1_" cx="276.3525" cy="-205.5518" r="37.1998" fx="295.3568" fy="-193.8741" gradientTransform="matrix(1 0 0 -1 -217.6602 -99.96)" gradientUnits="userSpaceOnUse">
			<stop  offset="0" style="stop-color:#808285"/>
			<stop  offset="0.3641" style="stop-color:#828486"/>
			<stop  offset="0.5586" style="stop-color:#888A8C"/>
			<stop  offset="0.7132" style="stop-color:#929497"/>
			<stop  offset="0.8467" style="stop-color:#A1A3A5"/>
			<stop  offset="0.9654" style="stop-color:#B5B7B9"/>
			<stop  offset="1" style="stop-color:#BCBEC0"/>
		</radialGradient>
		<path class="st7" d="M96.43,112.348c1.905,5.053-1.137,10.877-6.795,13.011l-41.136,15.508
			c-5.658,2.134-11.789-0.232-13.694-5.286L20.953,98.839c-1.905-5.054,1.137-10.88,6.795-13.014l41.136-15.508
			c5.658-2.133,11.788,0.235,13.694,5.288L96.43,112.348z"/>
		<path class="st8" d="M96.43,112.348c1.905,5.053-1.137,10.877-6.795,13.011l-41.136,15.508
			c-5.658,2.134-11.789-0.232-13.694-5.286L20.953,98.839c-1.905-5.054,1.137-10.88,6.795-13.014l41.136-15.508
			c5.658-2.133,11.788,0.235,13.694,5.288L96.43,112.348z"/>
	</g>
</g>
<g>
	<g class="st4">
		<path class="st1" d="M104.447,70.431h23.518v7.332h-14.82v9.033h13.847v7.273h-13.847v15.896h-8.697V70.431z"/>
		<path class="st1" d="M142.097,73.305c0,2.463-1.774,4.458-4.692,4.458c-2.746,0-4.52-1.994-4.52-4.458
			c0-2.522,1.831-4.458,4.635-4.458S142.04,70.782,142.097,73.305z M133.113,109.964V81.282h8.698v28.682H133.113z"/>
		<path class="st1" d="M148.789,90.432c0-3.578-0.114-6.569-0.229-9.15h7.553l0.4,3.988h0.172c1.145-1.877,3.948-4.633,8.641-4.633
			c5.722,0,10.014,3.93,10.014,12.376v16.951h-8.698V94.068c0-3.695-1.259-6.217-4.405-6.217c-2.403,0-3.834,1.701-4.464,3.343
			c-0.229,0.586-0.286,1.408-0.286,2.229v16.541h-8.697V90.432z"/>
		<path class="st1" d="M205.607,103.043c0,2.698,0.114,5.337,0.458,6.921h-7.84l-0.515-2.874h-0.172
			c-1.831,2.287-4.692,3.52-8.011,3.52c-5.665,0-9.041-4.224-9.041-8.799c0-7.449,6.523-10.968,16.423-10.968V90.49
			c0-1.583-0.802-3.754-5.093-3.754c-2.861,0-5.894,0.998-7.725,2.17l-1.603-5.748c1.945-1.115,5.779-2.581,10.872-2.581
			c9.327,0,12.245,5.631,12.245,12.435V103.043z M197.196,96.415c-4.578,0-8.126,1.114-8.126,4.516c0,2.288,1.488,3.402,3.434,3.402
			c2.117,0,3.948-1.467,4.521-3.285c0.114-0.469,0.172-0.997,0.172-1.524V96.415z"/>
		<path class="st1" d="M212.529,90.432c0-3.578-0.114-6.569-0.229-9.15h7.553l0.4,3.988h0.172c1.145-1.877,3.948-4.633,8.641-4.633
			c5.722,0,10.014,3.93,10.014,12.376v16.951h-8.698V94.068c0-3.695-1.259-6.217-4.405-6.217c-2.403,0-3.834,1.701-4.464,3.343
			c-0.229,0.586-0.286,1.408-0.286,2.229v16.541h-8.697V90.432z"/>
		<path class="st1" d="M267.059,109.201c-1.545,0.763-4.463,1.35-7.782,1.35c-9.04,0-14.819-5.689-14.819-14.664
			c0-8.388,5.607-15.25,16.021-15.25c2.289,0,4.807,0.41,6.638,1.114l-1.374,6.628c-1.029-0.469-2.574-0.88-4.863-0.88
			c-4.578,0-7.553,3.343-7.496,8.036c0,5.22,3.434,8.035,7.668,8.035c2.06,0,3.662-0.352,4.978-0.938L267.059,109.201z"/>
		<path class="st1" d="M277.929,98.468c0.229,3.695,3.833,5.455,7.896,5.455c2.976,0,5.378-0.411,7.725-1.232l1.145,6.042
			c-2.861,1.231-6.352,1.818-10.128,1.818c-9.499,0-14.935-5.631-14.935-14.605c0-7.273,4.405-15.309,14.133-15.309
			c9.041,0,12.475,7.214,12.475,14.312c0,1.525-0.172,2.874-0.286,3.52H277.929z M288.171,92.367c0-2.17-0.916-5.807-4.921-5.807
			c-3.662,0-5.15,3.461-5.379,5.807H288.171z"/>
	</g>
</g>
<g>
	<g class="st4">
		<path class="st1" d="M120.881,136.439c0,1.77,0.073,3.5,0.292,4.539h-5.002l-0.329-1.885h-0.11
			c-1.168,1.5-2.994,2.308-5.112,2.308c-3.615,0-5.769-2.77-5.769-5.77c0-4.886,4.163-7.193,10.479-7.193v-0.231
			c0-1.038-0.511-2.462-3.25-2.462c-1.826,0-3.761,0.654-4.929,1.424l-1.022-3.771c1.242-0.73,3.688-1.692,6.938-1.692
			c5.952,0,7.814,3.693,7.814,8.155V136.439z M115.513,132.093c-2.921,0-5.185,0.73-5.185,2.962c0,1.5,0.949,2.231,2.191,2.231
			c1.351,0,2.52-0.962,2.884-2.154c0.073-0.309,0.11-0.654,0.11-1.001V132.093z"/>
		<path class="st1" d="M125.296,113.667h5.55v27.312h-5.55V113.667z"/>
		<path class="st1" d="M135.335,113.667h5.55v27.312h-5.55V113.667z"/>
		<path class="st1" d="M153.81,128.938v3.885h-9.566v-3.885H153.81z"/>
		<path class="st1" d="M162.863,116.937c0,1.615-1.132,2.924-2.994,2.924c-1.753,0-2.885-1.309-2.885-2.924
			c0-1.654,1.169-2.924,2.958-2.924S162.827,115.282,162.863,116.937z M157.131,140.979v-18.811h5.55v18.811H157.131z"/>
		<path class="st1" d="M167.134,128.169c0-2.347-0.073-4.309-0.146-6.001h4.82l0.256,2.616h0.109c0.73-1.231,2.52-3.039,5.514-3.039
			c3.651,0,6.39,2.577,6.39,8.116v11.117h-5.55v-10.425c0-2.423-0.804-4.077-2.812-4.077c-1.534,0-2.447,1.115-2.849,2.192
			c-0.146,0.385-0.183,0.923-0.183,1.462v10.848h-5.55V128.169z"/>
		<path class="st1" d="M196.962,128.938v3.885h-9.566v-3.885H196.962z"/>
		<path class="st1" d="M218.502,131.361c0,6.886-4.637,10.04-9.42,10.04c-5.222,0-9.238-3.615-9.238-9.693
			c0-6.116,3.798-10.002,9.566-10.002C214.851,121.706,218.502,125.669,218.502,131.361z M205.576,131.554
			c0,3.231,1.278,5.655,3.651,5.655c2.191,0,3.542-2.27,3.542-5.693c0-2.77-1.022-5.616-3.542-5.616
			C206.599,125.899,205.576,128.784,205.576,131.554z"/>
		<path class="st1" d="M221.932,128.169c0-2.347-0.073-4.309-0.146-6.001h4.82l0.256,2.616h0.109c0.73-1.231,2.52-3.039,5.514-3.039
			c3.651,0,6.39,2.577,6.39,8.116v11.117h-5.55v-10.425c0-2.423-0.804-4.077-2.812-4.077c-1.534,0-2.447,1.115-2.849,2.192
			c-0.146,0.385-0.183,0.923-0.183,1.462v10.848h-5.55V128.169z"/>
		<path class="st1" d="M247.598,133.438c0.146,2.424,2.446,3.578,5.038,3.578c1.899,0,3.433-0.27,4.93-0.808l0.73,3.962
			c-1.826,0.808-4.053,1.192-6.463,1.192c-6.062,0-9.53-3.693-9.53-9.578c0-4.771,2.812-10.04,9.019-10.04
			c5.77,0,7.961,4.731,7.961,9.386c0,1-0.11,1.885-0.183,2.308H247.598z M254.133,129.438c0-1.424-0.584-3.809-3.14-3.809
			c-2.337,0-3.286,2.27-3.433,3.809H254.133z"/>
	</g>
</g>
<g>
	<g>
		<polygon class="st9" points="54.468,142.713 43.292,131.961 72.072,76.16 93.399,71.411 		"/>
		<polygon class="st3" points="66.694,76.16 39.741,127.917 34.385,122.246 55.963,78.714 		"/>
		<polygon class="st2" points="32.924,119.615 30.211,116.393 46.661,81.302 52.206,79.898 		"/>
	</g>
</g>
</svg>
