<?xml version="1.0" encoding="iso-8859-1"?>
<!-- Generator: Adobe Illustrator 18.1.1, SVG Export Plug-In . SVG Version: 6.00 Build 0)  -->
<svg version="1.1" id="Capa_1" xmlns="http://www.w3.org/2000/svg" xmlns:xlink="http://www.w3.org/1999/xlink" x="0px" y="0px"
	 viewBox="0 0 23.532 23.532" style="enable-background:new 0 0 23.532 23.532;" xml:space="preserve">
<g>
	<path style="fill:#12A8E0;" d="M11.766,0C5.268,0,0,5.268,0,11.766s5.268,11.766,11.766,11.766s11.766-5.268,11.766-11.766
		S18.264,0,11.766,0z M17.747,16.433H5.783c-0.368,0-0.667-0.298-0.667-0.667c0-0.368,0.299-0.667,0.667-0.667h11.964
		c0.368,0,0.667,0.298,0.667,0.667C18.414,16.134,18.116,16.433,17.747,16.433z M17.747,12.433H5.783
		c-0.368,0-0.667-0.298-0.667-0.667c0-0.368,0.299-0.667,0.667-0.667h11.964c0.368,0,0.667,0.298,0.667,0.667
		C18.414,12.134,18.116,12.433,17.747,12.433z M17.747,8.433H5.783c-0.368,0-0.667-0.298-0.667-0.667
		c0-0.368,0.299-0.667,0.667-0.667h11.964c0.368,0,0.667,0.298,0.667,0.667C18.414,8.134,18.116,8.433,17.747,8.433z"/>
</g>
</svg>
